<?xml version="1.0" standalone="no"?>
<!DOCTYPE svg PUBLIC "-//W3C//DTD SVG 20010904//EN"
 "http://www.w3.org/TR/2001/REC-SVG-20010904/DTD/svg10.dtd">
<svg version="1.0" xmlns="http://www.w3.org/2000/svg"
 width="512.000000pt" height="512.000000pt" viewBox="0 0 512.000000 512.000000"
 preserveAspectRatio="xMidYMid meet">
<metadata>
Created by potrace 1.11, written by Peter Selinger 2001-2013
</metadata>
<g transform="translate(0.000000,512.000000) scale(0.100000,-0.100000)"
fill="#000000" stroke="none">
<path d="M2477 5024 c-1 -1 -56 -5 -122 -8 -132 -7 -157 -10 -295 -32 -557
-89 -1036 -358 -1391 -779 -145 -173 -309 -451 -393 -665 -27 -70 -93 -270
-101 -304 -2 -12 -11 -52 -20 -91 -19 -89 -45 -235 -51 -293 l-4 -44 60 61
c155 153 368 280 670 398 131 51 233 86 615 209 338 108 590 202 685 254 8 5
47 25 85 45 263 139 468 341 573 563 36 75 32 107 -23 197 -40 68 -42 76 -16
99 17 16 20 13 53 -61 118 -259 199 -622 202 -901 l1 -82 112 -74 c260 -171
398 -310 483 -488 29 -60 31 -70 21 -101 -20 -61 -24 -81 -24 -153 -1 -95 17
-140 128 -309 50 -77 99 -158 108 -180 18 -45 37 -141 37 -192 0 -31 -2 -33
-33 -33 -19 0 -55 6 -80 14 -41 12 -47 12 -60 -3 -17 -20 -29 -51 -19 -52 4 0
24 -1 45 -3 21 -2 45 -10 54 -18 14 -14 8 -23 -58 -93 -171 -179 -438 -310
-649 -320 -110 -5 -178 8 -265 50 -66 32 -145 88 -145 103 0 4 36 18 80 31
123 37 182 83 98 76 -126 -10 -170 -27 -229 -92 -184 -203 -283 -391 -420
-803 -45 -135 -49 -143 -59 -116 -17 46 -141 410 -145 426 -1 8 -8 34 -14 57
-6 23 -14 60 -17 83 -3 23 -7 49 -9 58 -2 9 -4 59 -4 111 -1 81 -3 92 -14 77
-34 -47 -107 20 -107 99 0 37 -3 43 -23 47 -36 7 -64 -8 -82 -41 -18 -35 -47
-54 -69 -45 -19 7 -18 4 -20 119 -2 108 16 231 49 340 26 86 96 236 139 298
14 21 26 40 26 43 0 8 108 153 175 234 80 97 83 102 51 91 -364 -139 -634
-557 -711 -1101 -11 -76 -13 -401 -3 -480 23 -189 79 -394 148 -545 115 -250
324 -461 540 -544 60 -24 99 -31 195 -37 203 -14 560 -7 660 12 21 4 86 14
125 19 205 28 534 137 740 246 84 45 286 172 300 189 3 3 32 27 65 52 73 55
245 224 300 293 22 28 42 52 45 55 3 3 28 37 56 75 156 214 273 450 359 722
24 78 70 276 79 343 2 19 10 73 17 120 15 95 18 513 6 600 -5 30 -10 78 -13
105 -3 28 -9 66 -14 85 -5 19 -12 51 -15 70 -11 70 -17 97 -46 200 -34 119
-84 258 -127 351 -17 35 -31 69 -33 75 -2 6 -35 65 -73 131 -131 233 -346 486
-542 641 -82 64 -221 162 -230 162 -3 0 -28 15 -57 33 -105 66 -431 201 -534
222 -10 1 -45 10 -78 18 -84 22 -220 45 -355 61 -70 9 -388 24 -393 20z"/>
<path d="M3065 2761 c-35 -9 -95 -40 -80 -41 88 -10 105 -17 181 -73 81 -59
115 -77 160 -80 29 -1 37 2 40 16 4 27 -16 78 -39 105 -50 55 -186 93 -262 73z"/>
<path d="M2715 2129 c-263 -36 -406 -110 -427 -221 -5 -28 -5 -27 39 13 97 89
224 120 545 135 156 7 280 25 286 42 2 7 -6 12 -22 12 -13 0 -37 5 -53 11 -32
12 -294 18 -368 8z"/>
<path d="M2837 1983 c-1 0 -15 -3 -32 -6 -165 -27 -303 -98 -434 -222 -24 -23
-40 -45 -35 -48 5 -3 41 14 79 37 126 77 338 162 527 211 37 10 65 22 62 27
-4 7 -160 8 -167 1z"/>
</g>
</svg>
